<?xml version="1.0" standalone="no"?>
<!DOCTYPE svg PUBLIC "-//W3C//DTD SVG 20010904//EN"
 "http://www.w3.org/TR/2001/REC-SVG-20010904/DTD/svg10.dtd">
<svg version="1.0" xmlns="http://www.w3.org/2000/svg"
 width="850.000000pt" height="1280.000000pt" viewBox="0 0 850.000000 1280.000000"
 preserveAspectRatio="xMidYMid meet">
<metadata>
Created by potrace 1.15, written by Peter Selinger 2001-2017
</metadata>
<g transform="translate(0.000000,1280.000000) scale(0.100000,-0.100000)"
fill="#fff261" stroke="none">
<path d="M2757 12757 c-46 -24 -162 -100 -258 -169 -395 -285 -635 -431 -958
-583 -329 -154 -448 -231 -512 -333 l-27 -43 -23 30 c-31 42 -50 46 -117 21
-141 -53 -287 -141 -507 -305 -60 -45 -151 -110 -201 -143 -100 -66 -127 -94
-145 -149 -10 -31 -9 -38 5 -48 9 -7 16 -24 16 -38 0 -28 -5 -28 106 -1 60 15
77 15 103 5 30 -13 30 -14 15 -42 -17 -34 -12 -49 19 -49 27 0 55 18 125 82
30 26 86 67 125 90 40 23 97 60 128 83 31 23 101 67 155 98 54 32 107 63 116
70 14 9 24 9 50 -2 18 -7 45 -15 59 -18 23 -4 27 -1 32 27 4 17 20 45 37 62
29 29 34 30 98 26 44 -2 82 -11 111 -26 l44 -23 23 22 c22 21 29 22 141 16
239 -13 409 -93 595 -284 l66 -68 -13 -70 c-8 -38 -14 -87 -15 -108 0 -29 -5
-39 -22 -46 -101 -40 -186 -179 -203 -331 -15 -144 -42 -193 -184 -343 -113
-118 -158 -140 -355 -174 -218 -38 -258 -53 -414 -158 -76 -50 -174 -106 -218
-124 -127 -53 -157 -68 -245 -131 -135 -96 -184 -151 -240 -265 -52 -108 -82
-209 -100 -340 -10 -68 -9 -109 5 -231 17 -159 17 -166 -24 -364 -31 -150 -13
-227 61 -265 39 -21 44 -14 52 63 7 62 35 137 97 260 22 44 46 105 55 137 8
32 16 59 17 60 2 1 118 80 258 175 140 96 340 235 445 309 220 158 213 154
288 171 56 13 62 17 137 106 43 50 99 104 123 120 31 20 53 45 70 79 14 28 56
101 95 163 39 62 82 146 97 187 21 56 38 83 70 113 l43 39 -6 131 c-7 196 20
333 90 450 18 28 35 52 38 52 11 -1 99 -170 114 -220 9 -31 16 -91 16 -139 0
-47 7 -117 15 -156 21 -98 19 -114 -20 -236 -19 -60 -35 -117 -35 -127 0 -28
-230 -469 -289 -555 -67 -96 -147 -172 -238 -225 -40 -24 -103 -66 -141 -95
-144 -109 -160 -130 -125 -169 15 -17 15 -21 -15 -61 -107 -142 -153 -256
-153 -381 l0 -81 -61 -35 c-33 -19 -75 -53 -93 -75 -50 -62 -138 -243 -132
-273 4 -21 -6 -36 -54 -84 -51 -50 -71 -82 -145 -233 -47 -97 -101 -196 -119
-220 -24 -31 -37 -62 -45 -107 -6 -35 -24 -121 -40 -193 -50 -225 -60 -355
-39 -543 24 -228 74 -402 174 -609 73 -149 113 -197 311 -375 99 -87 119 -111
145 -167 76 -165 79 -169 140 -210 73 -49 146 -71 235 -71 l68 0 51 52 c53 55
133 179 153 237 7 19 12 88 12 156 l0 121 56 65 c72 83 165 222 215 322 77
153 139 380 155 565 8 94 17 96 54 9 22 -50 22 -59 14 -202 -16 -289 -14 -311
30 -397 41 -80 41 -81 16 -203 -7 -36 -10 -96 -7 -150 8 -139 49 -252 197
-540 70 -137 136 -275 145 -305 22 -67 62 -110 103 -110 26 0 32 5 42 36 18
53 7 118 -36 220 -33 77 -38 99 -38 164 0 71 3 81 58 192 32 65 62 120 67 123
4 3 6 25 3 48 -5 39 -2 47 40 101 43 54 46 63 46 116 0 47 7 71 35 124 19 37
35 80 35 97 0 17 -21 79 -47 138 l-48 106 0 115 c0 102 -3 121 -25 165 -18 37
-26 73 -30 140 -7 106 4 88 -209 360 -94 120 -155 209 -184 266 -39 80 -46 89
-94 112 -52 26 -52 26 -55 79 -6 110 24 239 61 263 5 3 26 -23 46 -57 43 -74
41 -72 125 -98 57 -18 72 -28 121 -83 31 -35 97 -90 145 -122 49 -33 122 -83
162 -112 101 -71 128 -79 195 -56 37 13 82 18 157 18 l105 0 58 -42 c33 -23
80 -49 105 -58 43 -14 50 -22 82 -82 24 -45 47 -74 69 -87 45 -26 51 -14 51
101 0 131 -20 181 -109 265 -61 58 -72 74 -105 159 -46 120 -86 166 -252 292
-111 83 -136 108 -176 171 -136 212 -354 360 -575 392 -26 3 -57 14 -68 24
-11 9 -42 32 -70 50 -80 53 -103 79 -130 151 -20 50 -42 84 -84 128 -36 37
-61 73 -65 92 -15 77 -6 180 31 331 36 146 37 163 43 374 l5 221 64 97 c77
116 90 167 91 336 0 140 -18 251 -71 423 -30 99 -51 148 -84 197 -68 100 -84
211 -36 254 18 16 21 16 58 -2 147 -75 276 -226 344 -399 51 -133 71 -165 161
-254 l88 -86 30 -119 c18 -68 34 -158 37 -209 l5 -90 89 -85 88 -85 -41 -120
c-61 -179 -88 -323 -95 -506 -6 -173 4 -271 43 -408 33 -117 120 -288 199
-392 69 -93 214 -235 294 -290 44 -30 55 -46 97 -138 34 -74 64 -121 102 -162
53 -58 137 -109 178 -109 14 0 48 26 94 72 66 66 106 126 125 188 4 14 56 71
114 126 59 56 120 120 135 143 32 45 46 52 46 21 0 -11 14 -48 31 -82 29 -57
30 -64 19 -104 -11 -38 -10 -143 1 -183 3 -11 -9 -18 -40 -25 -52 -11 -76 -41
-150 -184 -51 -100 -239 -532 -296 -682 -105 -275 -153 -578 -126 -800 13
-109 48 -258 65 -279 6 -8 34 -25 63 -37 45 -20 56 -31 85 -86 28 -53 42 -68
86 -91 29 -16 60 -39 68 -52 15 -23 14 -27 -17 -72 -18 -26 -65 -88 -104 -138
-40 -49 -94 -121 -120 -160 -27 -38 -71 -100 -97 -137 -37 -51 -55 -88 -73
-153 -41 -151 -96 -254 -276 -515 -120 -174 -175 -271 -214 -374 -36 -94 -56
-199 -49 -247 5 -32 0 -52 -30 -115 l-37 -75 25 -24 c31 -29 35 -45 38 -171 3
-99 4 -101 44 -161 l40 -61 -18 -103 c-33 -193 -18 -310 43 -353 22 -15 25
-15 36 0 7 9 15 37 19 62 5 33 17 57 44 86 57 63 82 121 194 458 57 172 112
331 121 353 l18 40 12 -40 c6 -22 38 -91 69 -154 59 -116 60 -130 15 -131 -30
0 -69 -93 -83 -195 -8 -56 -20 -105 -32 -122 -17 -26 -18 -50 -19 -293 0 -230
3 -274 19 -335 14 -51 19 -108 21 -210 2 -164 14 -212 79 -306 55 -82 72 -115
80 -163 8 -43 19 -61 88 -153 39 -52 50 -77 65 -145 18 -86 46 -130 90 -143
37 -10 44 42 53 410 5 187 14 437 20 555 13 221 8 456 -11 600 -6 45 -9 84 -6
86 10 11 66 -27 94 -63 16 -21 51 -76 77 -123 77 -135 108 -160 198 -160 65 0
123 25 181 79 44 41 44 41 35 83 -17 72 2 114 93 214 112 123 120 137 113 199
-13 108 52 256 137 312 22 14 47 40 56 57 28 56 65 97 125 142 50 37 68 44
105 44 44 0 48 3 138 94 58 59 105 98 129 107 38 14 95 88 299 389 26 38 51
70 56 70 13 0 31 -107 31 -187 0 -102 -22 -197 -95 -418 -35 -104 -82 -264
-105 -355 -23 -91 -70 -263 -106 -383 -82 -282 -105 -393 -106 -526 -1 -132
14 -188 98 -384 35 -82 69 -169 75 -192 9 -36 19 -47 77 -85 124 -80 156 -123
201 -265 42 -131 88 -185 159 -185 55 0 57 61 6 162 -51 102 -56 197 -19 408
23 132 26 171 21 261 -6 90 -4 120 14 189 18 71 21 106 18 254 -1 94 1 186 6
205 l8 33 44 -81 c24 -46 64 -113 89 -150 55 -82 198 -246 248 -284 26 -20 37
-36 37 -55 1 -47 35 -104 124 -206 129 -146 129 -148 132 -346 3 -254 16 -306
138 -545 68 -134 84 -158 160 -235 46 -47 100 -112 121 -145 20 -33 50 -73 66
-90 30 -32 160 -296 202 -410 14 -38 31 -95 37 -125 24 -104 69 -162 109 -141
54 30 66 155 29 332 l-21 106 39 74 40 74 -8 99 c-9 107 -42 247 -84 354 -15
37 -85 183 -157 324 -140 278 -140 278 -310 421 -32 27 -71 73 -88 101 -21 38
-53 71 -112 116 -186 143 -308 260 -388 370 -36 50 -85 135 -74 128 6 -3 98
-56 205 -118 211 -122 334 -199 420 -264 67 -52 115 -72 295 -126 77 -23 165
-52 195 -64 36 -15 63 -20 75 -15 39 15 69 8 130 -30 58 -37 135 -75 140 -69
7 8 -17 134 -35 182 -53 141 -199 273 -501 451 -166 98 -163 97 -494 105 -328
8 -319 6 -467 93 -51 30 -112 61 -135 67 -36 11 -44 19 -57 54 -8 23 -32 84
-54 136 -39 93 -40 95 -73 96 l-34 0 -1 95 c-1 52 -7 113 -13 137 -7 27 -10
116 -9 240 2 166 0 204 -15 242 -9 25 -33 141 -52 257 -50 307 -59 341 -105
402 -43 57 -45 63 -31 89 5 10 16 68 25 130 15 108 36 172 56 172 6 0 10 -13
10 -29 0 -41 32 -141 96 -296 69 -170 86 -245 84 -360 -2 -49 -2 -105 -1 -122
1 -24 35 -82 128 -220 148 -219 180 -259 267 -333 65 -55 65 -55 133 -55 62 0
78 -5 173 -52 127 -63 165 -71 214 -48 43 21 49 29 41 55 -8 26 -55 50 -97 50
-18 0 -55 11 -83 24 -114 54 -206 170 -284 361 -63 154 -279 596 -366 751
-107 187 -137 271 -150 419 -8 78 -20 99 -71 115 -30 10 -34 16 -34 45 0 18
-10 64 -21 101 -18 58 -22 95 -23 240 -1 194 -3 200 -81 234 -68 29 -68 26
-54 234 21 338 -27 476 -188 531 l-58 20 -3 58 c-2 44 0 59 13 63 28 11 151
-24 266 -76 l114 -52 0 -141 c1 -235 40 -337 160 -416 58 -38 75 -56 96 -100
23 -46 34 -58 82 -81 36 -17 68 -43 90 -71 24 -32 58 -57 127 -94 52 -27 115
-62 140 -77 25 -15 93 -38 154 -53 60 -14 124 -35 142 -46 30 -18 39 -19 90
-10 32 6 162 11 288 11 164 0 248 4 289 14 32 7 59 15 61 17 2 2 11 27 20 56
17 50 19 52 47 46 26 -5 34 0 63 33 19 22 66 59 105 84 39 25 74 53 77 63 3 9
30 35 59 57 64 47 85 75 85 112 0 26 -3 28 -37 28 -21 0 -90 -14 -153 -32 -96
-27 -132 -32 -215 -31 -121 1 -256 23 -390 64 -129 40 -186 70 -379 196 -224
147 -299 182 -434 203 -82 14 -117 32 -223 117 -92 75 -149 103 -205 103 -25
0 -48 10 -77 33 -65 52 -102 71 -252 132 -190 78 -230 99 -291 156 -49 47 -82
105 -98 172 l-7 28 96 -3 c70 -2 95 -6 95 -16 0 -46 144 -183 208 -199 15 -3
58 -1 98 6 66 11 75 10 125 -10 43 -17 81 -22 194 -26 81 -3 159 -10 184 -19
64 -20 90 -18 239 22 87 23 144 33 163 29 37 -8 84 7 167 56 37 22 105 51 152
65 159 49 174 58 209 128 17 34 58 91 91 126 57 60 60 65 53 102 -5 37 -3 43
41 87 34 34 66 87 117 192 76 153 99 216 99 264 0 93 -41 103 -94 23 -124
-187 -177 -257 -232 -301 -69 -56 -154 -99 -242 -122 -87 -22 -360 -37 -464
-25 -46 6 -123 15 -173 21 -105 12 -172 5 -235 -24 -38 -17 -68 -20 -195 -22
-185 -3 -197 -6 -564 -146 -23 -9 -23 -9 -16 48 4 32 22 152 41 267 27 161 33
219 26 251 -6 29 -5 52 6 80 10 30 12 69 8 155 -14 278 -119 549 -315 809 -31
42 -60 82 -65 90 -12 20 168 -105 281 -195 50 -40 167 -138 260 -217 519 -444
780 -604 1156 -707 72 -20 80 -20 102 -6 36 23 51 20 118 -24 58 -39 61 -40
80 -23 17 16 37 18 153 15 114 -2 135 0 140 13 9 22 -18 59 -98 134 -44 43
-74 80 -82 105 -12 34 -21 41 -77 65 -81 34 -127 63 -264 166 -130 98 -411
278 -510 327 -108 55 -238 100 -509 178 -337 97 -479 153 -606 239 -32 22 -57
31 -86 31 -51 0 -201 28 -229 42 -11 6 -45 34 -76 63 -34 33 -91 71 -148 100
-82 40 -151 94 -151 117 0 4 16 4 35 1 41 -7 65 9 65 43 0 42 -37 56 -147 53
-97 -2 -99 -2 -193 43 -52 25 -103 48 -112 51 -10 4 -24 28 -33 60 -16 57 -17
51 25 247 24 117 26 327 5 537 -8 78 -14 175 -14 215 0 76 -9 112 -76 293 -30
81 -38 115 -39 175 -1 97 4 105 53 80 48 -24 67 -64 87 -177 19 -109 54 -177
141 -277 116 -134 162 -199 182 -259 11 -32 36 -79 55 -105 53 -72 530 -537
581 -568 25 -14 90 -37 143 -50 56 -14 118 -37 146 -54 30 -20 52 -27 60 -22
22 18 77 22 116 8 21 -7 83 -45 137 -83 123 -88 123 -88 212 -103 125 -21 250
0 434 72 l102 40 72 -13 c131 -22 275 7 353 70 45 36 49 56 13 68 -21 8 -46 5
-98 -9 -95 -27 -163 -27 -184 0 -9 12 -34 23 -60 27 -112 18 -256 88 -401 195
-52 39 -120 87 -150 108 -36 24 -56 46 -58 61 -3 21 -1 23 23 17 15 -4 45 -18
68 -33 63 -40 97 -51 186 -62 60 -8 108 -22 174 -52 115 -52 165 -58 242 -30
63 24 78 22 139 -17 29 -18 63 -27 125 -34 68 -7 94 -15 125 -36 73 -52 100
-62 157 -62 62 0 109 26 109 60 0 23 -16 36 -65 49 -29 7 -54 26 -90 66 -50
56 -51 56 -161 84 -97 24 -121 34 -190 83 -44 31 -116 69 -164 87 -47 18 -146
65 -220 106 -279 151 -359 184 -500 209 -61 10 -94 23 -134 49 -107 71 -133
80 -252 87 -116 6 -164 23 -164 57 0 13 11 15 78 11 62 -4 94 -13 167 -45 81
-37 101 -41 196 -47 68 -3 130 -14 175 -28 59 -19 91 -23 214 -23 160 0 181 6
292 78 29 19 71 37 94 41 22 3 92 22 155 42 107 34 124 37 267 40 123 3 159 7
182 21 17 9 30 21 30 25 0 18 -67 81 -109 102 -60 30 -104 41 -286 71 -82 14
-202 34 -265 45 -190 34 -365 50 -545 50 -182 0 -261 -10 -495 -60 -91 -19
-190 -33 -265 -37 -90 -4 -128 -10 -150 -24 l-30 -18 -177 84 c-249 119 -596
255 -649 255 -10 0 -24 -9 -33 -21 -10 -15 -20 -19 -35 -14 -23 7 -102 92
-137 147 -18 28 -31 38 -63 43 -26 4 -45 15 -56 31 -9 14 -42 41 -73 61 -61
38 -102 72 -102 84 0 4 31 12 69 19 86 14 148 3 271 -47 47 -19 114 -44 150
-55 36 -11 118 -49 183 -85 175 -97 223 -107 344 -77 58 14 67 14 103 0 22 -9
92 -25 155 -36 64 -12 134 -28 157 -36 62 -21 89 -18 179 26 l83 40 161 0
c229 0 286 20 340 118 21 38 41 56 101 91 72 41 79 43 192 52 144 11 193 22
257 58 99 55 230 142 253 168 23 25 23 27 5 37 -31 17 -113 11 -233 -18 -105
-26 -126 -28 -235 -22 -66 3 -191 17 -278 31 -93 14 -200 25 -258 25 -55 0
-132 7 -172 15 -69 14 -75 14 -112 -5 -50 -26 -126 -26 -270 -1 -179 32 -388
44 -629 38 -259 -7 -280 -11 -502 -101 -111 -45 -193 -71 -267 -85 -116 -22
-133 -28 -192 -77 l-41 -33 -42 19 c-46 21 -82 70 -82 112 0 15 -6 30 -12 35
-7 4 -107 10 -223 13 -204 5 -212 6 -266 33 -69 33 -73 33 -93 2 -22 -34 -42
-31 -55 6 -17 49 -15 55 48 123 68 73 81 101 57 124 -27 27 -88 19 -178 -26
-111 -54 -116 -55 -216 -42 -72 9 -110 8 -217 -5 -212 -27 -336 -30 -373 -11
-17 9 -33 20 -36 25 -6 9 59 67 258 228 72 59 121 90 170 109 50 20 86 43 135
89 36 34 94 78 129 99 72 44 96 80 86 131 -5 27 -11 35 -28 36 -47 3 -73 -4
-113 -27 -23 -13 -46 -24 -52 -24 -17 0 -69 54 -80 83 -6 15 -17 27 -25 27 -9
0 -53 -19 -99 -43z m-466 -697 c21 -17 22 -21 9 -30 -15 -11 -118 -6 -129 6
-11 11 41 44 69 44 15 0 38 -9 51 -20z m-571 -104 c0 -2 -35 -19 -77 -36 -43
-18 -86 -39 -95 -48 -26 -22 -22 3 4 27 30 29 168 75 168 57z m1373 -78 c29
-15 42 -31 77 -99 34 -65 76 -119 95 -119 7 0 15 -17 18 -41 4 -28 16 -52 38
-75 37 -38 56 -41 100 -18 36 18 57 13 124 -32 27 -19 58 -34 67 -34 10 0 18
-4 18 -9 0 -5 46 -117 101 -248 113 -265 116 -283 83 -415 -17 -63 -17 -69 -1
-86 33 -36 21 -73 -44 -144 -31 -35 -41 -61 -59 -153 -11 -55 -18 -65 -79
-125 -37 -36 -86 -94 -110 -130 -51 -75 -90 -120 -106 -120 -6 0 -31 21 -55
46 -66 67 -104 87 -178 93 l-64 6 -18 58 c-24 77 -39 97 -109 151 -72 55 -101
100 -101 153 0 28 -11 57 -36 99 -75 122 -75 123 -39 166 14 16 25 38 25 48 0
37 -72 85 -187 124 l-111 39 -12 44 c-15 62 -52 133 -87 165 -41 39 -79 50
-143 43 -55 -6 -57 -5 -105 34 -27 23 -63 44 -80 47 -20 3 -39 18 -55 41 -35
51 -113 111 -195 148 -73 34 -222 75 -273 75 -39 0 -44 8 -27 40 35 67 86 91
282 130 102 21 174 48 188 70 8 13 53 -10 80 -40 30 -34 96 -80 114 -80 9 0
40 18 69 39 73 55 103 60 154 24 36 -24 52 -28 117 -30 42 -1 85 -2 96 -3 11
-1 103 27 205 63 102 36 189 66 193 66 5 1 18 -4 30 -11z m2325 -73 c42 -10
86 -13 130 -9 54 5 87 1 169 -20 125 -32 138 -32 215 -1 66 27 113 31 168 14
19 -5 132 -15 250 -20 118 -6 228 -14 244 -18 l30 -7 -36 -17 c-22 -10 -81
-21 -145 -26 -59 -5 -144 -20 -188 -33 -75 -22 -96 -23 -345 -22 -229 0 -293
4 -470 27 -113 15 -239 36 -280 48 -65 17 -90 19 -185 12 -111 -8 -195 -7
-204 2 -18 19 99 63 197 75 122 14 381 11 450 -5z m-1548 -189 c41 -33 100
-87 132 -118 60 -62 75 -67 113 -42 27 18 16 21 131 -33 56 -26 64 -56 64
-248 0 -180 8 -217 54 -251 l25 -19 -49 -185 c-55 -210 -115 -408 -125 -418
-17 -17 -55 73 -55 129 0 14 7 48 15 74 17 57 14 63 -61 151 -29 35 -59 82
-66 105 -9 31 -24 50 -55 73 -24 16 -43 33 -43 36 0 4 11 16 25 28 20 17 25
31 25 67 0 55 -16 88 -86 181 -66 88 -84 128 -84 196 -1 78 -29 130 -126 229
-110 112 -109 124 8 114 82 -7 83 -8 158 -69z m-3199 -324 c-14 -27 -39 -46
-120 -91 -41 -23 -95 -59 -120 -80 -63 -52 -130 -95 -137 -88 -4 3 13 34 38
69 48 70 104 108 158 108 29 0 43 8 81 50 37 40 52 50 78 50 27 0 30 -3 22
-18z m4273 -198 c43 -14 172 -65 288 -114 115 -50 213 -90 218 -90 5 0 36 -27
68 -59 41 -41 73 -64 103 -72 31 -10 62 -33 113 -85 50 -50 91 -80 138 -102
60 -28 68 -36 92 -86 20 -42 61 -89 172 -198 80 -79 167 -172 192 -208 59 -85
162 -191 237 -245 33 -23 105 -65 161 -93 55 -28 116 -63 134 -79 l33 -28 -24
-6 c-42 -12 -132 -9 -198 6 -78 19 -223 84 -316 143 -100 64 -345 268 -391
327 -71 90 -134 152 -172 169 -29 13 -41 27 -56 64 -13 30 -45 72 -90 117 -61
60 -96 83 -241 159 -209 110 -294 165 -331 213 -16 21 -72 84 -125 140 -53 56
-107 116 -120 134 l-23 32 30 -7 c16 -4 64 -18 108 -32z m-1637 -1105 c26 -23
50 -43 51 -45 6 -4 -60 -124 -67 -124 -17 0 -93 65 -106 91 -22 42 -19 85 7
103 36 25 63 19 115 -25z m-1577 -203 c0 -7 -20 -38 -44 -67 -24 -30 -47 -64
-50 -76 -4 -12 -26 -37 -49 -56 -23 -19 -94 -87 -157 -151 -147 -150 -196
-182 -328 -218 -134 -37 -151 -46 -247 -138 -45 -43 -103 -89 -131 -103 -27
-14 -87 -48 -134 -76 -46 -29 -91 -50 -100 -49 -10 2 -16 18 -18 50 -3 43 0
51 38 92 23 25 73 61 113 82 61 31 79 46 112 97 39 58 42 60 141 98 60 24 117
54 142 74 30 26 61 41 119 55 84 21 368 158 406 196 12 12 58 63 102 113 44
50 81 91 83 91 1 0 2 -6 2 -14z m3044 -440 c122 -76 381 -359 447 -488 26 -51
45 -141 58 -278 24 -239 95 -509 177 -671 58 -117 131 -218 214 -299 l77 -76
6 -141 c4 -78 10 -156 14 -174 l6 -32 -79 6 c-166 13 -346 79 -413 152 -40 44
-59 91 -87 213 -15 70 -18 75 -53 90 -24 11 -68 16 -136 17 -57 0 -109 6 -121
13 -34 18 -72 69 -110 145 -20 38 -51 93 -69 121 -34 51 -48 100 -60 208 -4
32 -17 78 -29 103 l-24 46 30 92 c105 333 125 716 52 975 -10 34 19 28 100
-22z m-2587 -133 c-7 -130 -26 -222 -58 -285 -20 -39 -21 -51 -16 -392 5 -397
11 -444 77 -582 30 -62 54 -95 102 -139 l62 -58 -21 -56 c-11 -31 -37 -93 -58
-139 -20 -46 -42 -112 -48 -148 -6 -35 -14 -64 -17 -64 -17 0 -43 44 -57 96
-52 202 -254 427 -479 534 l-84 41 0 54 c0 69 -27 141 -79 210 l-41 54 11 53
c6 28 29 99 51 156 47 126 52 171 21 187 -20 11 -19 12 23 39 24 15 77 59 119
98 41 38 79 67 85 63 5 -3 10 -21 10 -39 0 -18 6 -40 13 -50 12 -16 14 -16 40
4 33 26 56 70 87 165 32 99 43 118 89 149 23 16 66 60 96 97 31 38 61 69 67
69 8 0 9 -34 5 -117z m2329 -825 c-20 -35 -36 -59 -36 -55 0 12 64 126 68 122
2 -2 -12 -32 -32 -67z m-45 -95 c-12 -20 -14 -14 -5 12 4 9 9 14 11 11 3 -2 0
-13 -6 -23z m-62 -143 c-39 -73 -96 -140 -153 -179 -46 -31 -106 -55 -106 -41
0 5 14 11 30 15 70 15 178 121 228 222 14 29 28 51 30 48 2 -2 -11 -31 -29
-65z m-988 23 c13 -16 12 -17 -3 -4 -10 7 -18 15 -18 17 0 8 8 3 21 -13z m146
-122 c38 -22 91 -64 118 -93 l50 -53 -50 47 c-27 25 -84 67 -125 91 -41 25
-88 60 -105 78 l-30 33 37 -31 c20 -17 68 -50 105 -72z m-1191 7 c18 -21 37
-50 40 -65 9 -34 20 -43 57 -43 22 0 52 -22 130 -94 208 -194 366 -291 541
-335 39 -10 65 -26 117 -75 36 -35 103 -92 148 -127 78 -60 81 -64 59 -73 -13
-5 -77 -10 -143 -10 -114 -1 -123 0 -187 31 -140 66 -272 166 -300 228 -8 18
-178 105 -206 105 -5 0 -21 17 -34 38 -14 20 -71 93 -126 162 -92 113 -168
239 -188 309 l-6 23 32 -18 c17 -11 47 -36 66 -56z m1728 -287 c-14 -27 -54
-80 -88 -117 -62 -67 -63 -68 -93 -55 -17 7 -42 24 -55 38 -19 21 -15 20 25
-8 l49 -34 68 72 c38 39 78 90 90 112 11 23 23 41 26 41 3 0 -7 -22 -22 -49z
m828 -281 l98 -22 11 -41 c6 -23 26 -63 44 -88 84 -117 86 -157 15 -254 -74
-100 -70 -146 21 -273 46 -65 56 -116 40 -209 -16 -93 -87 -236 -148 -300 -27
-28 -94 -77 -155 -113 -224 -132 -316 -239 -343 -400 -6 -34 -19 -57 -54 -93
-25 -27 -58 -55 -73 -63 -26 -14 -28 -13 -42 14 -25 49 -28 95 -12 211 12 86
15 153 10 275 -5 128 -3 184 11 271 12 75 18 184 20 342 3 243 6 288 32 418
27 142 102 319 163 388 l30 35 117 -39 c65 -21 162 -48 215 -59z m505 -391
c27 -38 51 -58 89 -75 44 -19 56 -31 72 -66 10 -24 44 -81 74 -128 81 -126 91
-161 76 -255 -14 -85 -5 -124 42 -178 22 -25 52 -72 66 -104 33 -74 50 -93 86
-93 23 0 31 6 40 31 7 19 16 29 27 27 20 -4 26 -46 40 -264 6 -89 14 -183 17
-208 l7 -46 -34 0 c-32 -1 -39 -8 -114 -117 -161 -233 -184 -292 -185 -463 0
-125 -8 -162 -75 -350 -35 -98 -49 -182 -54 -341 -1 -8 -21 -47 -45 -85 -30
-47 -51 -96 -66 -153 -12 -46 -31 -103 -42 -125 l-21 -41 -9 30 c-4 17 -17 93
-29 170 -28 191 -55 309 -86 377 l-25 56 30 64 c126 265 152 608 81 1078 -21
134 -38 198 -100 360 -30 78 -33 96 -36 220 -2 133 -2 136 28 195 33 66 59
154 59 200 0 22 3 26 12 17 20 -20 61 -13 107 18 24 17 48 30 52 30 9 0 -3 46
-24 86 -8 16 -41 62 -71 101 -31 39 -56 74 -56 77 0 3 7 6 15 6 8 0 32 -23 52
-51z m1987 1 c47 -36 76 -38 116 -8 34 25 48 18 32 -16 -18 -41 -72 -72 -207
-119 -279 -98 -354 -111 -615 -111 -215 0 -297 10 -439 55 -38 12 -98 22 -139
23 -71 1 -75 3 -118 43 -24 23 -44 47 -44 53 0 6 19 20 43 30 55 26 156 26
255 1 146 -37 198 -43 275 -31 59 8 82 8 127 -5 97 -28 143 -29 234 -6 77 20
88 20 126 7 40 -14 44 -13 98 14 31 15 81 35 110 45 29 9 57 25 62 36 15 27
38 23 84 -11z m-2067 -119 c30 -44 29 -53 -3 -39 -22 10 -54 54 -54 73 0 18
37 -4 57 -34z m1220 -874 c270 -225 574 -440 716 -507 56 -27 72 -30 166 -30
86 0 112 -4 149 -21 43 -21 65 -22 143 -3 21 5 36 -3 78 -40 40 -36 57 -45 75
-40 13 3 26 2 29 -3 3 -4 -123 -9 -279 -11 -330 -3 -367 3 -550 86 -60 27
-118 52 -129 55 -11 3 -38 11 -61 16 -34 9 -47 20 -72 61 -25 41 -44 56 -109
89 -58 30 -86 51 -108 83 -44 64 -86 109 -110 118 -40 15 -132 270 -97 270 6
0 78 -55 159 -123z m-4516 56 c-12 -20 -14 -14 -5 12 4 9 9 14 11 11 3 -2 0
-13 -6 -23z m-20 -50 c-12 -20 -14 -14 -5 12 4 9 9 14 11 11 3 -2 0 -13 -6
-23z m3156 0 c14 -51 7 -265 -11 -368 -21 -119 -111 -453 -151 -563 -3 -9 -32
11 -85 58 -87 79 -124 123 -145 173 -13 31 -12 34 36 97 93 124 154 267 179
422 12 72 15 78 74 142 67 72 91 81 103 39z m-3226 -150 c-55 -107 -190 -328
-191 -311 0 4 27 49 60 100 34 51 89 148 123 215 34 67 63 120 65 118 2 -2
-24 -57 -57 -122z m2959 -50 c-18 -63 -76 -185 -123 -262 -18 -30 -22 -32 -33
-17 -8 12 -9 28 -3 57 9 40 3 64 -26 99 -22 26 -28 60 -12 60 8 0 55 20 103
45 49 25 92 45 96 45 4 0 3 -12 -2 -27z m-3929 -70 c13 -16 12 -17 -3 -4 -17
13 -22 21 -14 21 2 0 10 -8 17 -17z m34 -43 c10 -11 16 -20 13 -20 -3 0 -13 9
-23 20 -10 11 -16 20 -13 20 3 0 13 -9 23 -20z m259 -254 l61 -58 -75 63 c-41
35 -111 100 -155 143 l-80 79 94 -84 c51 -46 121 -110 155 -143z m4928 -127
c40 -343 35 -488 -23 -609 -20 -43 -29 -78 -29 -113 -1 -68 -13 -120 -56 -230
-20 -50 -40 -116 -45 -146 -5 -34 -17 -64 -32 -80 -34 -36 -82 -110 -149 -225
-54 -94 -61 -102 -150 -163 -126 -88 -268 -157 -285 -139 -13 13 50 98 83 112
19 8 69 47 111 87 218 205 217 204 298 427 133 364 219 762 232 1078 4 103 10
151 17 149 6 -2 18 -67 28 -148z m-4500 -81 c-11 -13 -32 -43 -46 -68 -14 -25
-26 -40 -26 -35 0 22 73 125 88 125 3 0 -4 -10 -16 -22z m-135 -168 c16 0 35
6 42 13 11 10 13 9 9 -3 -10 -33 -110 -20 -140 18 -9 11 -1 9 23 -6 20 -12 50
-22 66 -22z m3634 -1707 c-12 -20 -14 -14 -5 12 4 9 9 14 11 11 3 -2 0 -13 -6
-23z m-45 -120 c-8 -15 -15 -25 -16 -21 0 12 23 58 27 54 3 -2 -2 -17 -11 -33z
m-60 -132 c-57 -112 -104 -181 -175 -256 -37 -38 -74 -81 -84 -95 l-18 -25 12
25 c6 14 40 54 74 90 69 72 145 183 189 278 16 34 31 60 33 58 3 -2 -12 -36
-31 -75z m-935 -48 c13 -16 12 -17 -3 -4 -17 13 -22 21 -14 21 2 0 10 -8 17
-17z m277 -256 c98 -52 120 -68 48 -37 -96 41 -190 111 -257 192 -34 41 -25
34 36 -27 62 -61 103 -91 173 -128z m338 -246 c-20 -38 -44 -51 -93 -51 -26 0
-47 8 -68 26 l-30 26 36 -21 c20 -12 50 -21 66 -21 34 0 79 31 88 61 4 11 9
18 12 16 2 -3 -3 -19 -11 -36z"/>
<path d="M5930 9275 c-249 -36 -431 -46 -510 -26 -59 14 -138 13 -174 -2 l-28
-12 26 -26 c29 -29 66 -42 184 -64 45 -9 129 -36 186 -60 140 -60 198 -72 481
-101 403 -40 467 -33 613 70 103 72 143 88 218 89 48 1 74 -6 128 -31 74 -35
107 -40 125 -18 17 21 -26 76 -89 114 -121 72 -254 93 -635 97 -287 4 -293 4
-525 -30z"/>
<path d="M3016 5524 c-18 -26 -18 -75 -1 -81 6 -2 15 14 22 34 6 21 15 46 18
56 11 27 -20 21 -39 -9z"/>
</g>
</svg>
