<?xml version="1.0" standalone="no"?>
<!DOCTYPE svg PUBLIC "-//W3C//DTD SVG 20010904//EN"
 "http://www.w3.org/TR/2001/REC-SVG-20010904/DTD/svg10.dtd">
<svg version="1.0" xmlns="http://www.w3.org/2000/svg"
 width="995.000000pt" height="1280.000000pt" viewBox="0 0 995.000000 1280.000000"
 preserveAspectRatio="xMidYMid meet">
<metadata>
Created by potrace 1.15, written by Peter Selinger 2001-2017
</metadata>
<g transform="translate(0.000000,1280.000000) scale(0.100000,-0.100000)"
fill="#fff261" stroke="none">
<path d="M4915 12780 c-17 -19 -18 -30 -7 -188 6 -92 17 -229 23 -304 l12
-137 -38 -46 c-21 -26 -58 -77 -83 -113 -80 -118 -131 -178 -197 -231 -77 -63
-205 -131 -245 -131 -16 0 -58 16 -92 35 -134 73 -400 176 -583 225 -203 54
-531 82 -720 62 -198 -22 -511 -120 -720 -224 -152 -77 -469 -303 -605 -432
-47 -45 -116 -109 -153 -143 -82 -74 -251 -262 -316 -352 -25 -35 -73 -100
-107 -145 -180 -242 -271 -406 -365 -656 -22 -58 -55 -130 -73 -161 -18 -31
-41 -78 -50 -105 -9 -27 -27 -67 -41 -89 -48 -79 -114 -213 -146 -296 -17 -46
-67 -157 -110 -247 -44 -91 -86 -197 -98 -243 -11 -44 -41 -125 -65 -178 -44
-96 -78 -209 -92 -306 -3 -27 -15 -78 -26 -113 -11 -35 -18 -78 -16 -95 3 -28
7 -32 34 -35 23 -2 49 9 105 46 41 27 153 91 249 142 96 51 200 107 230 125
30 18 80 41 110 51 30 10 73 28 94 42 73 46 176 83 254 92 86 10 114 18 187
50 28 12 107 34 176 50 69 15 165 42 215 60 49 17 136 42 194 55 58 13 113 27
124 31 14 5 10 -7 -19 -52 -21 -32 -47 -75 -59 -94 -11 -19 -29 -47 -41 -61
-12 -15 -32 -53 -44 -85 -13 -33 -49 -115 -81 -184 -33 -69 -72 -165 -89 -215
-16 -49 -43 -126 -59 -170 -89 -236 -162 -463 -192 -595 -12 -52 -33 -127 -46
-166 -13 -40 -33 -132 -44 -205 -21 -147 -35 -224 -50 -278 -18 -66 -41 -263
-39 -325 2 -33 -3 -140 -11 -236 -29 -381 -14 -844 40 -1190 10 -69 23 -165
28 -215 14 -127 69 -437 93 -520 24 -82 33 -113 87 -300 23 -77 55 -189 72
-250 17 -60 47 -141 65 -180 19 -38 39 -88 44 -110 6 -22 33 -71 60 -108 28
-38 62 -93 75 -124 14 -30 37 -69 51 -85 15 -17 39 -57 55 -89 17 -32 48 -86
70 -120 22 -34 40 -67 40 -74 0 -6 17 -36 38 -66 20 -30 43 -67 50 -84 18 -41
75 -123 201 -291 79 -104 167 -208 222 -260 30 -27 106 -105 169 -172 63 -67
123 -125 133 -128 10 -3 42 -27 71 -52 30 -26 100 -81 156 -122 56 -41 131
-97 168 -124 36 -27 100 -68 141 -91 42 -23 94 -54 115 -69 21 -14 73 -37 115
-50 77 -25 330 -136 392 -172 37 -21 160 -64 185 -64 23 0 71 -28 129 -74 28
-23 73 -53 98 -65 26 -13 65 -44 87 -69 43 -51 100 -150 100 -175 0 -8 20 -39
44 -67 25 -29 48 -65 51 -81 4 -15 16 -40 28 -56 12 -15 50 -72 83 -128 71
-115 75 -119 169 -191 150 -114 228 -161 297 -178 37 -9 77 -16 90 -16 13 0
69 27 125 60 80 47 109 70 134 107 17 27 51 68 74 93 92 99 185 260 185 323 0
13 11 38 24 56 14 19 28 46 31 60 3 15 31 52 61 82 67 66 89 100 123 192 25
68 27 70 76 87 86 30 167 67 189 87 23 20 79 38 171 54 33 5 71 18 84 27 59
43 75 50 120 55 61 7 223 76 372 158 63 34 147 79 186 99 51 25 88 53 123 92
27 30 73 70 102 89 29 18 69 47 89 63 20 17 56 42 80 56 24 14 80 62 124 106
44 45 99 93 121 107 23 14 62 50 87 79 169 196 211 247 237 292 16 28 56 87
90 130 37 49 91 141 140 240 82 167 200 427 200 440 0 4 13 35 29 69 16 34 43
105 59 157 65 210 111 369 127 445 10 44 28 123 41 175 13 52 28 131 34 175 6
44 21 141 35 215 113 630 99 1296 -45 2105 -73 411 -90 487 -145 655 -18 58
-51 161 -73 230 -126 397 -228 668 -295 787 -18 32 -48 96 -66 143 -44 110
-161 336 -209 402 -20 29 -57 84 -82 124 -42 67 -80 123 -309 458 -66 96 -127
168 -233 275 -78 80 -159 159 -179 176 -20 16 -85 75 -145 129 -60 55 -128
113 -150 130 -23 17 -104 78 -180 136 -77 58 -193 141 -259 185 -66 43 -142
101 -168 127 -53 53 -96 78 -173 101 -60 18 -135 55 -184 91 -19 15 -53 31
-75 37 -22 6 -99 39 -172 75 -140 68 -222 95 -288 93 -22 0 -64 4 -94 10 -29
6 -87 11 -127 11 -60 0 -75 3 -82 18 -9 16 -21 366 -28 792 -1 96 -8 243 -14
325 -6 83 -13 200 -17 260 l-6 110 61 -56 c33 -31 94 -76 136 -100 42 -24 100
-58 129 -74 l52 -30 8 -118 c9 -147 29 -201 109 -307 69 -92 182 -202 426
-418 72 -63 249 -168 347 -205 39 -15 102 -45 140 -68 103 -61 147 -79 212
-85 32 -3 90 -15 128 -26 231 -68 360 -90 514 -88 140 2 311 -11 369 -29 115
-35 481 -69 616 -58 90 8 317 -21 451 -58 60 -16 132 -26 215 -30 69 -4 145
-11 170 -15 178 -33 226 -44 310 -72 115 -38 307 -114 336 -133 25 -16 34 -11
34 21 0 23 -61 81 -150 142 -25 16 -88 74 -140 128 -52 53 -129 123 -170 154
-84 65 -120 100 -135 135 -5 13 -64 79 -130 147 -116 120 -154 169 -226 291
-19 32 -62 86 -96 121 -34 34 -77 81 -96 104 -18 24 -70 71 -114 105 -45 34
-119 91 -164 126 -46 35 -100 81 -120 100 -20 20 -68 54 -107 74 -39 21 -74
42 -77 47 -3 5 -36 29 -73 53 -37 24 -96 71 -132 104 -137 127 -367 238 -585
283 -33 7 -78 22 -100 33 -50 26 -207 63 -350 82 -60 8 -137 19 -170 24 -70
11 -173 5 -263 -15 -35 -8 -78 -14 -95 -14 -46 0 -150 -23 -237 -53 -41 -14
-108 -35 -149 -47 -153 -45 -281 -116 -391 -217 -36 -33 -77 -63 -92 -66 -65
-16 -225 82 -310 189 -28 36 -63 71 -79 80 -20 10 -29 22 -29 38 0 85 -24 111
-123 132 -86 18 -111 17 -132 -6z m35 -949 c23 -45 -1 -507 -41 -784 -13 -86
-5 -80 -114 -92 -243 -27 -271 -32 -313 -60 -31 -20 -58 -29 -106 -32 l-65 -6
14 49 c7 27 23 74 35 104 37 96 70 272 75 403 4 104 8 123 23 129 139 52 280
141 383 243 70 68 92 77 109 46z"/>
</g>
</svg>
